<?xml version="1.0" standalone="no"?>
<!DOCTYPE svg PUBLIC "-//W3C//DTD SVG 20010904//EN"
 "http://www.w3.org/TR/2001/REC-SVG-20010904/DTD/svg10.dtd">
<svg version="1.0" xmlns="http://www.w3.org/2000/svg"
 width="500.000000pt" height="500.000000pt" viewBox="0 0 500.000000 500.000000"
 preserveAspectRatio="xMidYMid meet">

<g transform="translate(0.000000,500.000000) scale(0.100000,-0.100000)"
fill="#000000" stroke="none">
<path d="M405 4961 c-47 -12 -87 -36 -121 -73 -56 -59 -69 -94 -69 -188 0 -94
13 -129 69 -188 49 -53 101 -76 176 -76 147 0 240 94 240 243 l0 51 -120 0
-120 0 0 -45 0 -45 60 0 c48 0 60 -3 60 -16 0 -43 -53 -84 -110 -84 -129 0
-185 187 -85 287 29 29 40 33 84 33 42 0 56 -5 85 -30 l34 -30 31 37 c17 21
31 40 31 44 0 12 -47 49 -81 63 -45 19 -125 27 -164 17z"/>
<path d="M2247 4956 c-69 -25 -107 -76 -107 -144 0 -57 34 -99 111 -141 85
-46 99 -58 99 -87 0 -49 -73 -58 -151 -18 -28 14 -52 24 -53 22 -18 -25 -46
-78 -46 -87 0 -7 26 -24 58 -39 76 -35 176 -37 240 -3 77 40 103 143 54 211
-10 14 -56 45 -102 70 -46 25 -88 53 -94 63 -28 45 55 74 128 43 l36 -15 21
41 c26 51 18 61 -66 83 -71 18 -79 18 -128 1z"/>
<path d="M2905 4961 c-70 -18 -134 -71 -171 -141 -26 -48 -26 -191 -1 -237 53
-98 128 -146 227 -147 147 0 240 94 240 243 l0 51 -120 0 -120 0 0 -45 0 -45
60 0 c48 0 60 -3 60 -16 0 -43 -53 -84 -110 -84 -129 0 -185 187 -85 287 29
29 40 33 84 33 42 0 56 -5 85 -30 l34 -30 31 37 c17 21 31 40 31 44 0 12 -47
49 -81 63 -45 19 -125 27 -164 17z"/>
<path d="M4747 4956 c-69 -25 -107 -76 -107 -144 0 -58 34 -99 115 -143 87
-46 95 -54 95 -84 0 -50 -77 -60 -154 -19 -26 14 -49 24 -50 22 -18 -24 -46
-78 -46 -87 0 -7 26 -24 58 -39 76 -35 176 -37 240 -3 77 40 103 143 54 211
-10 14 -56 45 -102 70 -46 25 -88 53 -94 63 -28 45 55 74 128 43 l36 -15 21
41 c26 51 18 61 -66 83 -71 18 -79 18 -128 1z"/>
<path d="M40 4700 l0 -260 55 0 55 0 0 260 0 260 -55 0 -55 0 0 -260z"/>
<path d="M760 4700 l0 -260 55 0 55 0 2 161 3 162 103 -162 103 -161 60 0 59
0 0 260 0 260 -60 0 -60 0 -2 -161 -3 -162 -103 162 -103 161 -55 0 -54 0 0
-260z"/>
<path d="M1288 4718 c-2 -135 -1 -253 0 -263 4 -16 14 -17 111 -13 94 4 113 8
160 33 89 49 131 122 131 228 0 105 -47 179 -150 232 -25 13 -65 20 -142 23
l-107 5 -3 -245z m211 113 c49 -35 66 -69 66 -131 0 -44 -5 -66 -21 -86 -29
-40 -63 -62 -106 -70 l-38 -6 0 162 0 162 38 -6 c20 -4 48 -15 61 -25z"/>
<path d="M1750 4700 l0 -260 145 0 145 0 0 50 0 49 -87 3 -88 3 -3 53 -3 52
90 0 91 0 0 50 0 50 -91 0 -90 0 3 53 3 52 88 3 87 3 0 49 0 50 -145 0 -145 0
0 -260z"/>
<path d="M2540 4700 l0 -260 55 0 55 0 0 260 0 260 -55 0 -55 0 0 -260z"/>
<path d="M3258 4933 c-3 -23 -3 -377 1 -470 1 -21 6 -23 56 -23 l55 0 2 162 3
161 103 -161 104 -162 59 0 59 0 -2 258 -3 257 -57 3 -57 3 -3 -162 -3 -162
-103 162 -103 161 -53 0 c-51 0 -54 -2 -58 -27z"/>
<path d="M3790 4700 l0 -263 108 5 c95 4 114 8 161 33 89 49 131 122 131 227
0 74 -22 129 -70 176 -58 59 -103 75 -222 80 l-108 5 0 -263z m209 131 c49
-35 66 -69 66 -131 0 -44 -5 -66 -21 -86 -29 -40 -63 -62 -106 -70 l-38 -6 0
162 0 162 38 -6 c20 -4 48 -15 61 -25z"/>
<path d="M4250 4700 l0 -260 145 0 145 0 0 50 0 49 -87 3 -88 3 -3 53 -3 52
90 0 91 0 0 50 0 50 -91 0 -90 0 3 53 3 52 88 3 87 3 0 49 0 50 -145 0 -145 0
0 -260z"/>
<path d="M1442 4329 c-115 -19 -226 -98 -278 -200 -38 -75 -45 -191 -15 -269
47 -124 180 -224 315 -237 74 -7 172 10 228 38 l38 19 -32 65 c-24 49 -36 64
-48 59 -66 -29 -100 -36 -152 -31 -101 9 -178 73 -199 167 -19 84 33 184 115
221 51 23 153 25 203 4 19 -8 39 -15 42 -15 4 0 20 27 36 61 29 60 29 61 10
75 -48 35 -179 56 -263 43z"/>
<path d="M2055 4329 c-108 -14 -211 -94 -262 -204 -24 -52 -28 -72 -27 -150 0
-114 32 -191 106 -261 76 -71 125 -89 238 -89 115 1 168 22 246 100 70 70 98
142 98 255 0 72 -5 95 -28 146 -65 145 -211 225 -371 203z m151 -169 c94 -59
112 -251 31 -339 -43 -47 -129 -65 -194 -40 -159 60 -148 347 16 400 38 12
109 2 147 -21z"/>
<path d="M3942 4329 c-115 -19 -226 -98 -278 -200 -39 -76 -45 -190 -14 -271
46 -123 179 -222 314 -235 74 -7 172 10 228 38 l38 19 -31 63 c-17 34 -32 63
-33 64 -1 2 -27 -7 -57 -18 -136 -52 -280 18 -310 151 -19 84 33 184 115 221
51 23 153 25 203 4 19 -8 39 -15 42 -15 4 0 20 27 36 61 29 60 29 61 10 75
-48 35 -179 56 -263 43z"/>
<path d="M4555 4329 c-108 -14 -211 -94 -262 -204 -24 -52 -28 -72 -27 -150 0
-114 32 -191 106 -261 76 -71 125 -89 238 -89 115 1 168 22 246 100 70 70 98
142 98 255 0 72 -5 95 -28 146 -65 145 -211 225 -371 203z m151 -169 c94 -59
112 -251 31 -339 -43 -47 -129 -65 -194 -40 -159 60 -148 347 16 400 38 12
109 2 147 -21z"/>
<path d="M30 3975 l0 -347 143 4 c130 3 147 6 204 32 73 33 144 103 176 174
18 38 22 65 22 142 -1 83 -4 101 -28 147 -39 75 -78 115 -149 154 -63 34 -64
34 -215 37 l-153 4 0 -347z m280 186 c19 -10 48 -37 65 -60 40 -56 48 -157 17
-217 -35 -68 -104 -114 -172 -114 l-30 0 0 211 0 211 43 -7 c23 -4 58 -15 77
-24z"/>
<path d="M660 3975 l0 -345 195 0 195 0 0 70 0 70 -120 0 -120 0 0 70 0 70
115 0 115 0 0 70 0 70 -115 0 -115 0 0 70 0 70 120 0 120 0 0 65 0 65 -195 0
-195 0 0 -345z"/>
<path d="M2530 3975 l0 -347 143 4 c130 3 147 6 204 32 73 33 144 103 176 174
33 72 31 208 -4 282 -36 77 -77 121 -151 161 -63 34 -64 34 -215 37 l-153 4 0
-347z m280 186 c19 -10 48 -37 65 -60 40 -56 48 -157 17 -217 -35 -68 -104
-114 -172 -114 l-30 0 0 211 0 211 43 -7 c23 -4 58 -15 77 -24z"/>
<path d="M3160 3975 l0 -345 195 0 195 0 0 70 0 70 -120 0 -120 0 0 70 0 70
115 0 115 0 0 70 0 70 -115 0 -115 0 0 70 0 70 120 0 120 0 0 65 0 65 -195 0
-195 0 0 -345z"/>
<path d="M107 3496 c-69 -25 -107 -76 -107 -144 0 -57 34 -99 111 -141 85 -46
99 -58 99 -87 0 -49 -78 -59 -152 -19 -26 14 -50 25 -53 25 -3 0 -5 -27 -5
-61 0 -60 0 -60 38 -76 57 -25 167 -22 220 6 77 40 104 144 54 210 -10 14 -56
46 -102 71 -46 25 -88 53 -94 63 -28 45 55 74 128 43 l36 -15 21 41 c26 51 18
61 -66 83 -71 18 -79 18 -128 1z"/>
<path d="M765 3501 c-47 -12 -87 -36 -121 -73 -56 -59 -69 -94 -69 -188 0 -94
13 -129 69 -188 49 -53 101 -76 176 -76 147 0 240 94 240 243 l0 51 -120 0
-120 0 0 -45 0 -45 60 0 c48 0 60 -3 60 -16 0 -43 -53 -84 -110 -84 -129 0
-185 187 -85 287 29 29 40 33 84 33 42 0 56 -5 84 -30 l34 -29 19 22 c47 53
48 56 28 78 -44 48 -158 78 -229 60z"/>
<path d="M2607 3496 c-70 -25 -107 -76 -107 -144 0 -57 34 -99 111 -141 85
-46 99 -58 99 -87 0 -49 -78 -59 -154 -18 -26 14 -49 24 -50 22 -18 -24 -46
-78 -46 -87 0 -7 26 -24 58 -39 76 -35 176 -37 240 -3 77 40 103 143 54 211
-10 14 -56 45 -102 70 -46 25 -88 53 -94 63 -28 45 55 74 128 43 l36 -15 20
40 c24 46 21 54 -24 73 -53 22 -127 27 -169 12z"/>
<path d="M3265 3501 c-47 -12 -87 -36 -121 -73 -56 -59 -69 -94 -69 -188 0
-94 13 -129 69 -188 49 -53 101 -76 176 -76 147 0 240 94 240 243 l0 51 -120
0 -120 0 0 -45 0 -45 60 0 c48 0 60 -3 60 -16 0 -43 -53 -84 -110 -84 -129 0
-185 187 -85 287 29 29 40 33 84 33 42 0 56 -5 85 -30 l34 -30 31 37 c17 21
31 40 31 44 0 12 -47 49 -81 63 -45 19 -125 27 -164 17z"/>
<path d="M400 3240 l0 -260 55 0 55 0 0 260 0 260 -55 0 -55 0 0 -260z"/>
<path d="M1120 3240 l0 -260 55 0 55 0 2 162 3 161 103 -161 104 -162 59 0 59
0 -2 258 -3 257 -57 3 -57 3 -3 -161 -3 -161 -103 160 -104 161 -54 0 -54 0 0
-260z"/>
<path d="M1650 3497 c-3 -3 -4 -121 -2 -262 l3 -258 107 5 c95 4 114 8 161 33
89 49 131 122 131 228 0 105 -47 179 -150 232 -25 13 -65 20 -140 23 -58 2
-107 2 -110 -1z m209 -126 c49 -35 66 -69 66 -131 0 -44 -5 -66 -21 -86 -29
-40 -63 -62 -106 -70 l-38 -6 0 162 0 162 38 -6 c20 -4 48 -15 61 -25z"/>
<path d="M2110 3240 l0 -260 145 0 145 0 0 50 0 49 -87 3 -88 3 -3 53 -3 52
90 0 91 0 0 50 0 50 -91 0 -90 0 3 53 3 52 88 3 87 3 0 49 0 50 -145 0 -145 0
0 -260z"/>
<path d="M2900 3240 l0 -260 55 0 55 0 0 260 0 260 -55 0 -55 0 0 -260z"/>
<path d="M3619 3483 c-5 -125 -6 -347 -2 -415 l6 -88 53 0 54 0 2 162 3 161
103 -161 104 -162 59 0 59 0 -2 258 -3 257 -57 3 -57 3 -3 -162 -3 -162 -103
161 -104 162 -54 0 c-44 0 -54 -3 -55 -17z"/>
<path d="M4150 3240 l0 -263 108 5 c95 4 114 8 161 33 89 49 131 122 131 228
0 105 -47 179 -150 232 -25 13 -65 20 -142 23 l-108 5 0 -263z m209 131 c49
-35 66 -69 66 -131 0 -44 -5 -66 -21 -86 -29 -40 -63 -62 -106 -70 l-38 -6 0
162 0 162 38 -6 c20 -4 48 -15 61 -25z"/>
<path d="M4610 3240 l0 -260 145 0 145 0 0 50 0 49 -87 3 -88 3 -3 53 -3 52
90 0 91 0 0 50 0 50 -91 0 -90 0 3 53 3 52 88 3 87 3 0 49 0 50 -145 0 -145 0
0 -260z"/>
<path d="M4975 3077 c-19 -39 -19 -39 0 -53 18 -14 20 -13 23 10 2 15 2 38 0
54 -4 27 -4 27 -23 -11z"/>
<path d="M1142 2879 c-115 -19 -226 -98 -278 -200 -38 -75 -45 -191 -15 -269
47 -124 180 -224 315 -237 74 -7 172 10 228 38 l38 19 -32 65 c-24 49 -36 64
-48 59 -66 -29 -100 -36 -152 -31 -101 9 -178 73 -199 167 -20 88 34 187 123
225 47 19 148 19 195 0 19 -8 39 -15 42 -15 4 0 20 27 36 61 29 60 29 61 10
75 -48 35 -179 56 -263 43z"/>
<path d="M1755 2879 c-108 -14 -211 -94 -262 -204 -24 -52 -28 -72 -27 -150 0
-114 32 -191 106 -261 76 -71 125 -89 238 -89 115 1 168 22 246 100 70 70 98
142 98 255 0 72 -5 95 -28 146 -65 145 -211 225 -371 203z m149 -168 c97 -61
114 -262 28 -344 -48 -45 -125 -60 -189 -36 -159 60 -148 347 16 400 38 12
109 2 145 -20z"/>
<path d="M3642 2879 c-119 -20 -232 -103 -280 -207 -37 -79 -42 -185 -13 -262
24 -65 94 -148 153 -183 117 -68 274 -74 391 -16 l37 19 -31 63 c-17 34 -32
63 -33 64 -1 2 -27 -7 -57 -18 -136 -52 -280 18 -310 151 -20 88 34 187 123
225 47 19 148 19 195 0 19 -8 39 -15 42 -15 4 0 20 27 36 61 29 60 29 61 10
75 -48 35 -179 56 -263 43z"/>
<path d="M4255 2879 c-108 -14 -211 -94 -262 -204 -24 -52 -28 -72 -27 -150 0
-114 32 -191 106 -261 76 -71 125 -89 238 -89 115 1 168 22 246 100 70 70 98
142 98 255 0 72 -5 95 -28 146 -65 145 -211 225 -371 203z m149 -168 c97 -61
114 -262 28 -344 -48 -45 -125 -60 -189 -36 -159 60 -148 347 16 400 38 12
109 2 145 -20z"/>
<path d="M0 2795 c0 -71 1 -73 34 -99 102 -77 102 -252 1 -333 -34 -27 -35
-30 -35 -100 0 -52 4 -73 13 -73 33 0 136 61 175 104 67 73 86 124 87 231 0
77 -4 98 -26 145 -14 31 -40 72 -57 91 -32 36 -110 84 -162 99 l-30 9 0 -74z"/>
<path d="M360 2525 l0 -345 195 0 195 0 0 70 0 70 -120 0 -120 0 0 70 0 70
115 0 115 0 0 70 0 70 -115 0 -115 0 0 70 0 70 120 0 120 0 0 65 0 65 -195 0
-195 0 0 -345z"/>
<path d="M2230 2525 l0 -347 143 4 c130 3 147 6 204 32 73 33 144 103 176 174
17 38 22 66 21 142 0 84 -3 101 -27 147 -39 75 -78 115 -149 154 -63 34 -64
34 -215 37 l-153 4 0 -347z m280 186 c19 -10 48 -37 65 -60 40 -56 48 -157 17
-217 -35 -68 -104 -114 -172 -114 l-30 0 0 211 0 211 43 -7 c23 -4 58 -15 77
-24z"/>
<path d="M2860 2525 l0 -345 195 0 195 0 0 70 0 70 -120 0 -120 0 0 70 0 70
115 0 115 0 0 70 0 70 -115 0 -115 0 0 70 0 70 120 0 120 0 0 65 0 65 -195 0
-195 0 0 -345z"/>
<path d="M4730 2525 l0 -345 119 0 c66 0 126 3 135 6 13 5 16 22 16 80 l0 74
-26 -10 c-14 -6 -39 -10 -55 -10 l-29 0 0 211 0 211 38 -6 c20 -4 45 -9 55
-12 15 -5 17 3 17 70 l0 76 -135 0 -135 0 0 -345z"/>
<path d="M1646 2045 c-78 -28 -121 -98 -105 -173 9 -45 42 -78 114 -114 97
-49 116 -76 77 -111 -27 -24 -81 -21 -138 8 -27 14 -50 25 -51 25 -2 0 -53
-88 -53 -93 0 -2 25 -16 56 -32 44 -22 69 -28 127 -29 127 -2 199 53 200 153
1 69 -26 100 -133 155 -73 38 -90 51 -90 69 0 13 5 28 12 35 17 17 83 15 119
-4 17 -8 32 -14 34 -12 1 2 12 22 23 45 26 50 21 56 -63 78 -71 18 -79 18
-129 0z"/>
<path d="M2295 2049 c-139 -34 -220 -197 -173 -351 15 -50 78 -122 132 -151
63 -33 155 -30 226 9 75 40 111 99 118 194 l5 70 -122 0 -121 0 0 -45 0 -45
60 0 c72 0 78 -14 26 -66 -29 -29 -41 -34 -79 -34 -54 0 -92 27 -118 84 -24
52 -24 100 0 152 26 58 63 84 120 84 37 0 54 -6 82 -30 l36 -29 33 40 c31 39
32 41 13 61 -42 48 -160 76 -238 57z"/>
<path d="M4146 2046 c-107 -39 -144 -158 -74 -234 13 -13 50 -38 83 -54 72
-36 95 -55 95 -79 0 -52 -77 -64 -156 -24 -26 13 -51 21 -55 17 -3 -4 -16 -23
-28 -44 l-22 -36 28 -19 c48 -34 94 -47 162 -47 121 -1 193 55 194 153 1 69
-26 100 -133 155 -73 38 -90 51 -90 69 0 13 5 28 12 35 17 17 83 15 119 -4 17
-8 32 -14 34 -12 1 2 12 22 24 46 l22 43 -43 19 c-62 27 -126 33 -172 16z"/>
<path d="M4795 2049 c-139 -34 -220 -197 -173 -351 15 -50 79 -123 132 -150
54 -28 146 -30 204 -4 l42 19 0 129 0 128 -70 0 -70 0 0 -45 0 -45 60 0 c72 0
78 -14 26 -66 -29 -29 -41 -34 -79 -34 -30 0 -53 7 -72 22 -34 27 -65 92 -65
138 0 46 31 111 65 138 46 36 135 25 174 -22 21 -26 31 -8 31 55 0 59 -1 60
-33 74 -47 19 -125 26 -172 14z"/>
<path d="M150 1790 l0 -260 60 0 60 0 2 159 3 160 100 -157 101 -157 57 -3 57
-3 0 261 0 260 -55 0 -55 0 -2 -162 -3 -163 -105 163 -104 162 -58 0 -58 0 0
-260z"/>
<path d="M680 1789 l0 -262 113 5 c131 5 172 21 234 92 90 103 86 243 -12 343
-62 63 -120 83 -247 83 l-88 0 0 -261z m220 132 c30 -21 70 -95 70 -131 0 -36
-40 -110 -70 -131 -14 -10 -42 -21 -62 -25 l-38 -6 0 161 0 162 38 -6 c20 -4
48 -15 62 -24z"/>
<path d="M1150 1790 l0 -260 145 0 145 0 0 50 0 50 -90 0 -90 0 0 55 0 55 85
0 85 0 0 50 0 50 -85 0 -85 0 0 55 0 55 90 0 90 0 0 50 0 50 -145 0 -145 0 0
-260z"/>
<path d="M1940 1790 l0 -260 55 0 55 0 0 260 0 260 -55 0 -55 0 0 -260z"/>
<path d="M2650 1790 l0 -260 60 0 60 0 2 159 3 160 100 -157 101 -157 57 -3
57 -3 0 261 0 260 -55 0 -55 0 -2 -162 -3 -163 -105 163 -104 162 -58 0 -58 0
0 -260z"/>
<path d="M3180 1789 l0 -262 113 5 c131 5 172 21 234 92 90 103 86 243 -12
343 -62 63 -120 83 -247 83 l-88 0 0 -261z m220 132 c30 -21 70 -95 70 -131 0
-36 -40 -110 -70 -131 -14 -10 -42 -21 -62 -25 l-38 -6 0 161 0 162 38 -6 c20
-4 48 -15 62 -24z"/>
<path d="M3650 1790 l0 -260 145 0 145 0 0 50 0 50 -90 0 -90 0 0 55 0 55 85
0 85 0 0 50 0 50 -85 0 -85 0 0 55 0 55 90 0 90 0 0 50 0 50 -145 0 -145 0 0
-260z"/>
<path d="M4440 1790 l0 -260 55 0 55 0 0 260 0 260 -55 0 -55 0 0 -260z"/>
<path d="M0 1970 l0 -55 27 28 28 27 -28 27 -27 28 0 -55z"/>
<path d="M0 1695 c0 -122 1 -125 20 -115 38 20 72 96 78 171 l5 69 -52 0 -51
0 0 -125z"/>
<path d="M842 1409 c-115 -19 -226 -98 -278 -200 -38 -75 -45 -191 -15 -269
47 -124 180 -224 315 -237 74 -7 172 10 228 38 l38 19 -31 63 c-17 34 -32 63
-33 64 -1 2 -27 -7 -57 -18 -136 -52 -280 18 -310 151 -20 88 34 187 123 225
47 19 148 19 195 0 19 -8 39 -15 42 -15 4 0 20 27 36 61 29 60 29 61 10 75
-48 35 -179 56 -263 43z"/>
<path d="M1455 1409 c-108 -14 -211 -94 -262 -204 -24 -52 -28 -72 -27 -150 0
-114 32 -191 106 -261 76 -71 125 -89 238 -89 115 1 168 22 246 100 69 69 97
141 97 255 1 72 -3 94 -27 146 -65 145 -211 225 -371 203z m149 -168 c97 -61
114 -262 28 -344 -48 -45 -125 -60 -189 -36 -159 60 -148 347 16 400 38 12
109 2 145 -20z"/>
<path d="M3342 1409 c-119 -20 -232 -103 -280 -207 -37 -79 -42 -185 -13 -262
47 -124 180 -224 315 -237 74 -7 172 10 228 38 l38 19 -31 63 c-17 34 -32 63
-33 64 -1 2 -27 -7 -57 -18 -136 -52 -280 18 -310 151 -19 84 33 184 115 221
51 23 153 25 203 4 19 -8 39 -15 42 -15 4 0 20 27 36 61 29 60 29 61 10 75
-48 35 -179 56 -263 43z"/>
<path d="M3955 1409 c-108 -14 -211 -94 -262 -204 -24 -52 -28 -72 -27 -150 0
-114 32 -191 106 -261 76 -71 125 -89 238 -89 115 1 168 22 246 100 69 69 97
141 97 255 1 72 -3 94 -27 146 -65 145 -211 225 -371 203z m149 -168 c97 -61
114 -262 28 -344 -48 -45 -125 -60 -189 -36 -159 60 -148 347 16 400 38 12
109 2 145 -20z"/>
<path d="M50 1055 l0 -345 200 0 200 0 0 70 0 70 -120 0 -120 0 0 70 0 70 115
0 116 0 -3 68 -3 67 -112 3 -113 3 0 69 0 70 120 0 120 0 0 65 0 65 -200 0
-200 0 0 -345z"/>
<path d="M1930 1054 l0 -347 143 5 c126 4 148 7 198 30 79 36 133 89 171 166
30 60 33 75 32 152 0 70 -5 95 -26 140 -33 70 -98 136 -168 169 -50 24 -68 26
-202 29 l-148 3 0 -347z m287 180 c93 -54 122 -203 57 -297 -34 -49 -102 -87
-156 -87 l-38 0 0 203 c0 112 3 207 7 211 12 12 86 -5 130 -30z"/>
<path d="M2550 1055 l0 -345 200 0 200 0 0 70 0 70 -120 0 -120 0 0 70 0 70
115 0 116 0 -3 68 -3 67 -112 3 -113 3 0 69 0 70 120 0 120 0 0 65 0 65 -200
0 -200 0 0 -345z"/>
<path d="M4430 1054 l0 -347 143 5 c126 4 148 7 198 30 79 36 133 89 171 166
30 60 33 75 32 152 0 70 -5 95 -26 140 -33 70 -98 136 -168 169 -50 24 -68 26
-202 29 l-148 3 0 -347z m287 180 c93 -54 122 -203 57 -297 -34 -49 -102 -87
-156 -87 l-38 0 0 203 c0 112 3 207 7 211 12 12 86 -5 130 -30z"/>
<path d="M155 589 c-52 -13 -110 -53 -135 -94 -17 -28 -20 -50 -20 -169 l0
-136 37 -41 c54 -59 105 -83 183 -83 53 0 75 5 120 29 75 41 111 100 118 195
l5 70 -122 0 -121 0 0 -45 0 -45 60 0 c72 0 78 -14 26 -66 -29 -29 -41 -34
-79 -34 -30 0 -53 7 -72 22 -34 27 -65 92 -65 138 0 46 31 111 65 138 46 36
118 28 170 -19 20 -17 21 -17 54 22 32 39 33 40 15 61 -43 48 -161 76 -239 57z"/>
<path d="M2006 585 c-78 -28 -121 -98 -105 -173 9 -45 42 -78 114 -114 97 -49
116 -76 77 -111 -27 -24 -82 -21 -136 8 -26 14 -49 25 -51 25 -5 0 -57 -91
-53 -95 1 -2 28 -16 57 -31 43 -21 70 -27 125 -28 126 -2 198 53 199 153 1 69
-26 100 -133 155 -73 38 -90 51 -90 69 0 13 5 28 12 35 17 17 83 15 119 -4 17
-8 32 -14 34 -12 1 2 12 22 23 45 26 50 21 56 -63 78 -71 18 -79 18 -129 0z"/>
<path d="M2655 589 c-139 -34 -220 -197 -173 -351 15 -50 79 -123 132 -150 64
-33 156 -30 226 7 75 41 111 100 118 195 l5 70 -122 0 -121 0 0 -45 0 -45 60
0 c72 0 78 -14 26 -66 -29 -29 -41 -34 -79 -34 -30 0 -53 7 -72 22 -34 27 -65
92 -65 138 0 46 31 111 65 138 46 37 118 28 171 -19 20 -19 21 -19 53 22 32
39 33 41 14 61 -42 48 -160 76 -238 57z"/>
<path d="M4506 586 c-79 -29 -121 -99 -105 -174 9 -45 42 -78 114 -114 97 -49
116 -76 77 -111 -27 -24 -81 -21 -138 8 -27 14 -50 25 -51 25 -2 0 -53 -88
-53 -93 0 -2 25 -16 56 -32 44 -22 69 -28 127 -29 127 -2 199 53 200 153 1 69
-26 100 -133 155 -73 38 -90 51 -90 69 0 13 5 28 12 35 17 17 83 15 119 -4 17
-8 32 -14 34 -12 1 2 12 22 24 46 l22 43 -43 19 c-62 27 -126 33 -172 16z"/>
<path d="M510 330 l0 -260 60 0 60 0 2 159 3 160 100 -157 101 -157 57 -3 57
-3 0 261 0 260 -55 0 -55 0 -2 -162 -3 -163 -105 163 -104 162 -58 0 -58 0 0
-260z"/>
<path d="M1040 329 l0 -262 113 5 c131 5 172 21 234 92 90 103 86 243 -12 343
-62 63 -120 83 -247 83 l-88 0 0 -261z m220 132 c30 -21 70 -95 70 -131 0 -36
-40 -110 -70 -131 -14 -10 -42 -21 -62 -25 l-38 -6 0 162 0 162 38 -6 c20 -4
48 -15 62 -25z"/>
<path d="M1510 330 l0 -260 145 0 145 0 0 50 0 50 -90 0 -90 0 0 55 0 55 85 0
85 0 0 50 0 50 -85 0 -85 0 0 55 0 55 90 0 90 0 0 50 0 50 -145 0 -145 0 0
-260z"/>
<path d="M2300 330 l0 -260 55 0 55 0 0 260 0 260 -55 0 -55 0 0 -260z"/>
<path d="M3010 330 l0 -260 60 0 60 0 2 159 3 160 100 -157 101 -157 57 -3 57
-3 0 261 0 260 -55 0 -55 0 -2 -162 -3 -163 -104 163 -104 162 -59 0 -58 0 0
-260z"/>
<path d="M3540 330 l0 -260 88 0 c127 0 185 20 247 83 54 56 75 105 75 177 0
72 -21 121 -75 177 -62 63 -120 83 -247 83 l-88 0 0 -260z m220 131 c30 -21
70 -95 70 -131 0 -36 -40 -110 -70 -131 -14 -10 -42 -21 -62 -25 l-38 -6 0
162 0 162 38 -6 c20 -4 48 -15 62 -25z"/>
<path d="M4010 330 l0 -260 145 0 145 0 0 50 0 50 -90 0 -90 0 0 55 0 55 85 0
85 0 0 50 0 50 -85 0 -85 0 0 55 0 55 90 0 90 0 0 50 0 50 -145 0 -145 0 0
-260z"/>
<path d="M4800 330 l0 -260 55 0 55 0 0 260 0 260 -55 0 -55 0 0 -260z"/>
<path d="M4982 421 c-16 -50 -14 -147 3 -191 12 -32 14 -25 14 98 1 72 -1 132
-2 132 -2 0 -9 -17 -15 -39z"/>
</g>
</svg>
